<svg version="1.1" id="Layer_1" xmlns="http://www.w3.org/2000/svg" xmlns:xlink="http://www.w3.org/1999/xlink" x="0px" y="0px"
	 width="100%" viewBox="0 0 512 512" enable-background="new 0 0 512 512" xml:space="preserve">
<path fill="#000000" opacity="1.000000" stroke="none" 
	d="
M445.364502,345.061401 
	C447.696045,384.998444 419.456665,423.951447 375.238586,430.661987 
	C356.422546,433.517517 338.381134,430.374908 321.686188,420.886627 
	C309.522217,413.973450 297.444397,406.908875 285.310150,399.943237 
	C267.088989,389.483368 248.611588,388.870056 230.141068,399.066681 
	C217.895355,405.826965 205.903610,413.046997 193.792892,420.052063 
	C147.497131,446.830322 90.333405,425.751282 72.669273,375.390869 
	C60.950809,341.981537 73.514793,302.191437 102.636459,281.493652 
	C115.547928,272.317017 129.693939,265.098267 143.406433,257.219604 
	C157.134964,249.331711 167.200562,238.667740 171.854004,223.287704 
	C173.563599,217.637314 173.883591,211.858475 174.004959,206.013580 
	C174.323059,190.694809 173.846603,175.376831 174.572311,160.050583 
	C176.308243,123.389481 204.908447,90.466690 241.205383,83.833160 
	C280.749390,76.606201 318.141144,96.656494 333.850922,133.630692 
	C338.132477,143.707642 340.000122,154.363525 340.122192,165.269394 
	C340.278778,179.262802 340.215240,193.259537 340.149658,207.254379 
	C340.050262,228.461624 349.574890,244.334335 367.264526,255.358459 
	C378.142944,262.137848 389.358337,268.390808 400.556458,274.639984 
	C425.282715,288.438690 440.217865,309.091522 444.757812,337.115479 
	C445.155273,339.568970 445.169678,342.084503 445.364502,345.061401 
M301.904755,270.500000 
	C301.942474,252.839081 301.999634,235.178162 302.012573,217.517227 
	C302.026031,199.190628 302.570465,180.841125 301.840424,162.543213 
	C300.932983,139.797913 282.749176,122.036255 260.005402,120.419609 
	C238.142120,118.865562 217.334656,134.737000 213.455673,156.750000 
	C210.726501,172.237961 212.376602,187.991364 212.553772,203.614227 
	C212.630814,210.406693 220.023071,213.505341 225.828781,209.778671 
	C232.312073,205.617081 236.350754,199.672211 237.765976,192.067505 
	C239.457275,182.979324 238.365784,173.786865 238.619553,164.644943 
	C238.922592,153.729126 246.954346,145.587891 257.621948,145.670807 
	C268.415344,145.754715 276.278717,153.740906 276.356567,164.834091 
	C276.415039,173.164185 276.612549,181.507797 276.248413,189.823486 
	C275.376251,209.741226 267.391602,226.378525 251.409378,238.402634 
	C238.486313,248.125214 223.788605,255.118057 209.844528,263.260010 
	C182.658936,279.133698 155.236710,294.604858 128.147079,310.639130 
	C107.407272,322.914886 100.262894,349.524628 111.664772,369.857605 
	C124.227028,392.259918 149.853806,400.223022 172.134140,388.314880 
	C183.438644,382.273010 194.428146,375.639038 205.519089,369.202148 
	C208.548187,367.444122 210.794418,364.892059 210.507187,361.159515 
	C210.212906,357.335541 207.841187,354.855530 204.390182,353.298218 
	C196.442184,349.711487 188.542328,349.648712 180.856674,353.869385 
	C173.850861,357.716675 167.078720,361.992676 160.042374,365.780243 
	C150.655273,370.833160 139.448746,367.682922 134.368546,358.841217 
	C129.045853,349.577484 131.855499,338.428192 141.056686,332.716919 
	C145.584000,329.906830 150.307190,327.410248 154.812332,324.566772 
	C181.351578,307.816010 207.175034,309.494843 233.717209,325.567139 
	C269.188995,347.046539 305.391602,367.318848 341.273499,388.121338 
	C348.534241,392.330719 356.314453,394.061340 364.713470,393.819611 
	C383.491730,393.279205 400.397705,379.973572 406.086792,360.956818 
	C411.448303,343.035126 404.274109,322.210358 388.525665,312.151398 
	C377.025146,304.805664 365.056671,298.174255 353.136169,291.511780 
	C346.845703,287.995972 340.208862,292.090302 340.342987,299.349731 
	C340.515503,308.688568 344.842804,315.967468 352.763947,320.873871 
	C359.416473,324.994507 366.254791,328.817719 373.048920,332.706116 
	C376.024109,334.408813 378.382996,336.644775 380.000732,339.679260 
	C383.981049,347.145386 382.840881,356.645508 377.238953,362.461517 
	C371.631531,368.283203 362.359589,369.986481 354.630615,365.964233 
	C347.103088,362.046783 339.766388,357.722015 332.568207,353.220612 
	C317.107513,343.552124 307.451019,329.669312 303.570129,311.848877 
	C300.664825,298.508301 302.296997,284.957184 301.904755,270.500000 
z"/>
</svg>